<?xml version="1.0" encoding="UTF-8" standalone="no"?>
<!DOCTYPE svg PUBLIC "-//W3C//DTD SVG 1.1//EN" "http://www.w3.org/Graphics/SVG/1.1/DTD/svg11.dtd">
<svg xmlns="http://www.w3.org/2000/svg" version="1.1" viewBox="0.00 0.00 512.00 512.00">
<g stroke-width="2.00" fill="none" stroke-linecap="butt">
<path stroke="#3ca9d5" vector-effect="non-scaling-stroke" d="
  M 429.51 121.25
  Q 426.28 113.41 420.13 110.55
  Q 416.84 109.02 413.05 109.02
  Q 335.74 108.98 261.29 109.04
  C 253.05 109.05 246.44 104.79 244.12 96.67
  C 243.22 93.54 243.76 90.35 242.62 87.20
  C 240.15 80.31 234.19 76.23 226.95 76.23
  Q 134.17 76.22 33.05 76.24
  C 28.27 76.24 23.07 78.92 20.24 82.75
  Q 20.19 82.80 5.33 104.34
  Q 4.77 105.15 4.07 106.84
  Q 3.26 108.76 2.12 109.02"
/>
<path stroke="#49b7dd" vector-effect="non-scaling-stroke" d="
  M 429.48 173.05
  Q 265.65 173.07 102.00 173.07
  Q 93.12 173.06 88.30 178.48
  Q 85.79 181.30 82.76 190.84
  Q 45.66 307.82 8.63 424.82
  Q 7.41 428.68 8.71 432.28"
/>
<path stroke="#3ca9d5" vector-effect="non-scaling-stroke" d="
  M 8.71 432.28
  Q 9.38 438.20 15.34 442.38
  Q 17.54 443.92 19.82 445.34"
/>
<path stroke="#4ec1ea" vector-effect="non-scaling-stroke" d="
  M 509.60 192.35
  Q 503.78 180.75 493.25 180.75
  Q 296.91 180.78 104.96 180.76
  C 97.69 180.76 92.60 181.19 87.73 186.88
  Q 85.79 189.16 83.16 197.44
  Q 46.01 314.72 8.71 432.28"
/>
</g>
<path fill="#41b3e2" d="
  M 429.51 121.25
  Q 426.28 113.41 420.13 110.55
  Q 416.84 109.02 413.05 109.02
  Q 335.74 108.98 261.29 109.04
  C 253.05 109.05 246.44 104.79 244.12 96.67
  C 243.22 93.54 243.76 90.35 242.62 87.20
  C 240.15 80.31 234.19 76.23 226.95 76.23
  Q 134.17 76.22 33.05 76.24
  C 28.27 76.24 23.07 78.92 20.24 82.75
  Q 20.19 82.80 5.33 104.34
  Q 4.77 105.15 4.07 106.84
  Q 3.26 108.76 2.12 109.02
  Q 0.97 100.75 4.95 95.00
  Q 11.59 85.42 18.00 76.18
  Q 21.53 71.10 24.06 69.40
  Q 28.61 66.34 34.35 66.35
  Q 126.37 66.47 221.93 66.30
  Q 229.59 66.28 232.63 67.34
  C 239.19 69.62 243.94 75.92 243.86 83.02
  C 243.79 89.77 247.95 95.55 254.11 98.14
  Q 256.72 99.24 262.34 99.23
  Q 334.36 99.16 411.81 99.26
  Q 416.53 99.27 419.80 100.67
  C 427.86 104.14 430.71 112.53 429.51 121.25
  Z"
/>
<path fill="#379fc8" d="
  M 429.51 121.25
  L 429.48 173.05
  Q 265.65 173.07 102.00 173.07
  Q 93.12 173.06 88.30 178.48
  Q 85.79 181.30 82.76 190.84
  Q 45.66 307.82 8.63 424.82
  Q 7.41 428.68 8.71 432.28
  Q 9.38 438.20 15.34 442.38
  Q 17.54 443.92 19.82 445.34
  C 12.12 445.77 5.03 441.22 2.84 433.87
  Q 2.11 431.40 2.11 424.82
  Q 2.13 266.85 2.12 109.02
  Q 3.26 108.76 4.07 106.84
  Q 4.77 105.15 5.33 104.34
  Q 20.19 82.80 20.24 82.75
  C 23.07 78.92 28.27 76.24 33.05 76.24
  Q 134.17 76.22 226.95 76.23
  C 234.19 76.23 240.15 80.31 242.62 87.20
  C 243.76 90.35 243.22 93.54 244.12 96.67
  C 246.44 104.79 253.05 109.05 261.29 109.04
  Q 335.74 108.98 413.05 109.02
  Q 416.84 109.02 420.13 110.55
  Q 426.28 113.41 429.51 121.25
  Z"
/>
<path fill="#5acef2" d="
  M 429.48 173.05
  Q 461.69 172.98 494.00 173.01
  Q 495.38 173.01 496.72 173.35
  Q 507.77 176.12 509.89 187.37
  Q 510.23 189.16 509.60 192.35
  Q 503.78 180.75 493.25 180.75
  Q 296.91 180.78 104.96 180.76
  C 97.69 180.76 92.60 181.19 87.73 186.88
  Q 85.79 189.16 83.16 197.44
  Q 46.01 314.72 8.71 432.28
  Q 7.41 428.68 8.63 424.82
  Q 45.66 307.82 82.76 190.84
  Q 85.79 181.30 88.30 178.48
  Q 93.12 173.06 102.00 173.07
  Q 265.65 173.07 429.48 173.05
  Z"
/>
<path fill="#41b3e2" d="
  M 509.60 192.35
  Q 471.66 312.24 433.33 433.03
  C 430.95 440.55 425.54 445.03 417.87 445.33
  Q 415.71 445.41 413.38 445.41
  Q 245.68 445.63 25.25 445.63
  Q 23.79 445.63 19.82 445.34
  Q 17.54 443.92 15.34 442.38
  Q 9.38 438.20 8.71 432.28
  Q 46.01 314.72 83.16 197.44
  Q 85.79 189.16 87.73 186.88
  C 92.60 181.19 97.69 180.76 104.96 180.76
  Q 296.91 180.78 493.25 180.75
  Q 503.78 180.75 509.60 192.35
  Z"
/>
</svg>
