<?xml version="1.0" encoding="UTF-8" standalone="no"?>
<!DOCTYPE svg PUBLIC "-//W3C//DTD SVG 1.1//EN" "http://www.w3.org/Graphics/SVG/1.1/DTD/svg11.dtd">
<svg xmlns="http://www.w3.org/2000/svg" version="1.1" viewBox="0.00 0.00 192.00 192.00">

<path fill="#ffc600" d="
  M 91.17 0.00
  L 100.95 0.00
  Q 140.23 2.80 166.85 31.27
  Q 129.52 22.86 96.01 41.39
  Q 96.09 41.40 96.17 41.42
  Q 88.06 37.44 85.43 36.36
  Q 65.82 28.28 45.50 28.77
  Q 36.57 28.99 25.15 31.30
  Q 51.79 2.73 91.17 0.00
  Z"
/>
<path fill="#ff97b1" d="
  M 96.17 41.42
  C 66.06 58.84 47.78 90.46 47.95 125.43
  Q 44.56 123.59 41.41 121.37
  Q 14.17 102.23 3.79 69.60
  Q 9.78 48.20 25.15 31.30
  Q 36.57 28.99 45.50 28.77
  Q 65.82 28.28 85.43 36.36
  Q 88.06 37.44 96.17 41.42
  Z"
/>
<path fill="#00b450" d="
  M 166.85 31.27
  Q 182.36 48.33 188.27 69.87
  Q 176.51 106.19 144.25 125.53
  Q 143.87 123.82 143.90 122.00
  Q 143.96 119.10 143.91 118.49
  Q 141.45 85.12 119.32 60.43
  Q 109.61 49.59 96.01 41.39
  Q 129.52 22.86 166.85 31.27
  Z"
/>
<path fill="#002d72" fill-opacity="0" d="
  M 96.17 41.42
  Q 96.09 41.40 96.01 41.39
  Q 109.61 49.59 119.32 60.43
  Q 141.45 85.12 143.91 118.49
  Q 143.96 119.10 143.90 122.00
  Q 143.87 123.82 144.25 125.53
  Q 143.90 126.13 144.04 126.30
  Q 143.39 126.00 142.99 126.22
  C 116.30 141.11 84.53 142.39 56.63 130.12
  Q 54.39 129.14 48.25 125.96
  Q 48.03 124.99 47.95 125.43
  C 47.78 90.46 66.06 58.84 96.17 41.42
  Z"
/>
<path fill="#ff4807" d="
  M 3.79 69.60
  Q 14.17 102.23 41.41 121.37
  Q 44.56 123.59 47.95 125.43
  Q 48.03 124.99 48.25 125.96
  Q 47.94 127.35 47.99 128.49
  C 48.98 149.32 56.39 170.27 70.19 185.99
  Q 71.43 187.40 72.38 189.02
  Q 58.37 185.46 47.49 178.81
  Q 4.27 152.43 0.00 100.86
  L 0.00 91.02
  Q 0.69 80.41 3.79 69.60
  Z"
/>
<path fill="#0a78ff" d="
  M 188.27 69.87
  Q 191.35 80.62 192.00 91.14
  L 192.00 100.97
  Q 189.36 138.48 163.25 164.46
  Q 145.35 182.28 119.55 189.01
  Q 143.17 161.47 144.04 126.30
  Q 143.90 126.13 144.25 125.53
  Q 176.51 106.19 188.27 69.87
  Z"
/>
<path fill="#bf17a7" d="
  M 48.25 125.96
  Q 54.39 129.14 56.63 130.12
  C 84.53 142.39 116.30 141.11 142.99 126.22
  Q 143.39 126.00 144.04 126.30
  Q 143.17 161.47 119.55 189.01
  Q 110.90 191.23 100.61 192.00
  L 91.26 192.00
  Q 81.47 191.27 72.38 189.02
  Q 71.43 187.40 70.19 185.99
  C 56.39 170.27 48.98 149.32 47.99 128.49
  Q 47.94 127.35 48.25 125.96
  Z"
/>
</svg>
